<?xml version="1.0" encoding="utf-8" standalone="no"?>
<!DOCTYPE svg PUBLIC "-//W3C//DTD SVG 1.1//EN"
  "http://www.w3.org/Graphics/SVG/1.1/DTD/svg11.dtd">
<svg xmlns:xlink="http://www.w3.org/1999/xlink" width="518.4pt" height="496.8pt" viewBox="0 0 518.4 496.8" xmlns="http://www.w3.org/2000/svg" version="1.1">
 <metadata>
  <rdf:RDF xmlns:dc="http://purl.org/dc/elements/1.1/" xmlns:cc="http://creativecommons.org/ns#" xmlns:rdf="http://www.w3.org/1999/02/22-rdf-syntax-ns#">
   <cc:Work>
    <dc:type rdf:resource="http://purl.org/dc/dcmitype/StillImage"/>
    <dc:date>2026-09-13T11:05:03.418823</dc:date>
    <dc:format>image/svg+xml</dc:format>
    <dc:creator>
     <cc:Agent>
      <dc:title>Matplotlib v3.10.7, https://matplotlib.org/</dc:title>
     </cc:Agent>
    </dc:creator>
   </cc:Work>
  </rdf:RDF>
 </metadata>
 <defs>
  <style type="text/css">*{stroke-linejoin: round; stroke-linecap: butt}</style>
 </defs>
 <g id="figure_1">
  <g id="patch_1">
   <path d="M 0 496.8 
L 518.4 496.8 
L 518.4 0 
L 0 0 
z
" style="fill: #ffffff"/>
  </g>
  <g id="axes_1">
   <g id="patch_2">
    <path d="M 90 66.803906 
Q 90 82.082459 90 96.242977 
" clip-path="url(#p7e7e24b0b0)" style="fill: none; stroke: #415a6b; stroke-linecap: round"/>
    <path d="M 92.2 91.842977 
L 90 96.242977 
L 87.8 91.842977 
z
" clip-path="url(#p7e7e24b0b0)" style="fill: #415a6b; stroke: #415a6b; stroke-linecap: round"/>
   </g>
   <g id="patch_3">
    <path d="M 259.2 66.803906 
Q 259.2 82.082459 259.2 96.242977 
" clip-path="url(#p7e7e24b0b0)" style="fill: none; stroke: #415a6b; stroke-linecap: round"/>
    <path d="M 261.4 91.842977 
L 259.2 96.242977 
L 257 91.842977 
z
" clip-path="url(#p7e7e24b0b0)" style="fill: #415a6b; stroke: #415a6b; stroke-linecap: round"/>
   </g>
   <g id="patch_4">
    <path d="M 428.4 66.803906 
Q 428.4 82.082459 428.4 96.242977 
" clip-path="url(#p7e7e24b0b0)" style="fill: none; stroke: #415a6b; stroke-linecap: round"/>
    <path d="M 430.6 91.842977 
L 428.4 96.242977 
L 426.2 91.842977 
z
" clip-path="url(#p7e7e24b0b0)" style="fill: #415a6b; stroke: #415a6b; stroke-linecap: round"/>
   </g>
   <g id="patch_5">
    <path d="M 90 176.243643 
Q 90 192.603811 90 207.845945 
" clip-path="url(#p7e7e24b0b0)" style="fill: none; stroke: #415a6b; stroke-linecap: round"/>
    <path d="M 92.2 203.445945 
L 90 207.845945 
L 87.8 203.445945 
z
" clip-path="url(#p7e7e24b0b0)" style="fill: #415a6b; stroke: #415a6b; stroke-linecap: round"/>
   </g>
   <g id="patch_6">
    <path d="M 259.2 176.243643 
Q 259.2 192.603811 259.2 207.845945 
" clip-path="url(#p7e7e24b0b0)" style="fill: none; stroke: #415a6b; stroke-linecap: round"/>
    <path d="M 261.4 203.445945 
L 259.2 207.845945 
L 257 203.445945 
z
" clip-path="url(#p7e7e24b0b0)" style="fill: #415a6b; stroke: #415a6b; stroke-linecap: round"/>
   </g>
   <g id="patch_7">
    <path d="M 428.4 176.243643 
Q 428.4 192.603811 428.4 207.845945 
" clip-path="url(#p7e7e24b0b0)" style="fill: none; stroke: #415a6b; stroke-linecap: round"/>
    <path d="M 430.6 203.445945 
L 428.4 207.845945 
L 426.2 203.445945 
z
" clip-path="url(#p7e7e24b0b0)" style="fill: #415a6b; stroke: #415a6b; stroke-linecap: round"/>
   </g>
   <g id="patch_8">
    <path d="M 90 280.643906 
Q 90 295.922459 90 310.082977 
" clip-path="url(#p7e7e24b0b0)" style="fill: none; stroke: #415a6b; stroke-linecap: round"/>
    <path d="M 92.2 305.682977 
L 90 310.082977 
L 87.8 305.682977 
z
" clip-path="url(#p7e7e24b0b0)" style="fill: #415a6b; stroke: #415a6b; stroke-linecap: round"/>
   </g>
   <g id="patch_9">
    <path d="M 90 394.399512 
Q 90 410.401573 90 425.285599 
" clip-path="url(#p7e7e24b0b0)" style="fill: none; stroke: #415a6b; stroke-linecap: round"/>
    <path d="M 92.2 420.885599 
L 90 425.285599 
L 87.8 420.885599 
z
" clip-path="url(#p7e7e24b0b0)" style="fill: #415a6b; stroke: #415a6b; stroke-linecap: round"/>
   </g>
   <g id="patch_10">
    <path d="M 259.2 280.643906 
Q 259.2 295.922459 259.2 310.082977 
" clip-path="url(#p7e7e24b0b0)" style="fill: none; stroke: #415a6b; stroke-linecap: round"/>
    <path d="M 261.4 305.682977 
L 259.2 310.082977 
L 257 305.682977 
z
" clip-path="url(#p7e7e24b0b0)" style="fill: #415a6b; stroke: #415a6b; stroke-linecap: round"/>
   </g>
   <g id="patch_11">
    <path d="M 259.2 394.399512 
Q 259.2 410.401573 259.2 425.285599 
" clip-path="url(#p7e7e24b0b0)" style="fill: none; stroke: #415a6b; stroke-linecap: round"/>
    <path d="M 261.4 420.885599 
L 259.2 425.285599 
L 257 420.885599 
z
" clip-path="url(#p7e7e24b0b0)" style="fill: #415a6b; stroke: #415a6b; stroke-linecap: round"/>
   </g>
   <g id="patch_12">
    <path d="M 428.4 280.643906 
Q 428.4 295.922459 428.4 310.082977 
" clip-path="url(#p7e7e24b0b0)" style="fill: none; stroke: #415a6b; stroke-linecap: round"/>
    <path d="M 430.6 305.682977 
L 428.4 310.082977 
L 426.2 305.682977 
z
" clip-path="url(#p7e7e24b0b0)" style="fill: #415a6b; stroke: #415a6b; stroke-linecap: round"/>
   </g>
   <g id="patch_13">
    <path d="M 428.4 394.399512 
Q 428.4 410.401573 428.4 425.285599 
" clip-path="url(#p7e7e24b0b0)" style="fill: none; stroke: #415a6b; stroke-linecap: round"/>
    <path d="M 430.6 420.885599 
L 428.4 425.285599 
L 426.2 420.885599 
z
" clip-path="url(#p7e7e24b0b0)" style="fill: #415a6b; stroke: #415a6b; stroke-linecap: round"/>
   </g>
   <g id="patch_14">
    <path d="M 53.64 63 
L 464.76 63 
Q 469.8 63 469.8 57.96 
L 469.8 14.04 
Q 469.8 9 464.76 9 
L 53.64 9 
Q 48.6 9 48.6 14.04 
L 48.6 57.96 
Q 48.6 63 53.64 63 
z
" clip-path="url(#p7e7e24b0b0)" style="fill: #edf3f8; stroke: #415a6b; stroke-width: 0.9; stroke-linejoin: miter"/>
   </g>
   <g id="patch_15">
    <path d="M 16.92 172.8 
L 163.08 172.8 
Q 168.12 172.8 168.12 167.76 
L 168.12 105.84 
Q 168.12 100.8 163.08 100.8 
L 16.92 100.8 
Q 11.88 100.8 11.88 105.84 
L 11.88 167.76 
Q 11.88 172.8 16.92 172.8 
z
" clip-path="url(#p7e7e24b0b0)" style="fill: #e4eff9; stroke: #415a6b; stroke-width: 0.9; stroke-linejoin: miter"/>
   </g>
   <g id="patch_16">
    <path d="M 186.12 172.8 
L 332.28 172.8 
Q 337.32 172.8 337.32 167.76 
L 337.32 105.84 
Q 337.32 100.8 332.28 100.8 
L 186.12 100.8 
Q 181.08 100.8 181.08 105.84 
L 181.08 167.76 
Q 181.08 172.8 186.12 172.8 
z
" clip-path="url(#p7e7e24b0b0)" style="fill: #e4f2ed; stroke: #415a6b; stroke-width: 0.9; stroke-linejoin: miter"/>
   </g>
   <g id="patch_17">
    <path d="M 355.32 172.8 
L 501.48 172.8 
Q 506.52 172.8 506.52 167.76 
L 506.52 105.84 
Q 506.52 100.8 501.48 100.8 
L 355.32 100.8 
Q 350.28 100.8 350.28 105.84 
L 350.28 167.76 
Q 350.28 172.8 355.32 172.8 
z
" clip-path="url(#p7e7e24b0b0)" style="fill: #e4f2ed; stroke: #415a6b; stroke-width: 0.9; stroke-linejoin: miter"/>
   </g>
   <g id="patch_18">
    <path d="M 16.92 277.2 
L 163.08 277.2 
Q 168.12 277.2 168.12 272.16 
L 168.12 217.44 
Q 168.12 212.4 163.08 212.4 
L 16.92 212.4 
Q 11.88 212.4 11.88 217.44 
L 11.88 272.16 
Q 11.88 277.2 16.92 277.2 
z
" clip-path="url(#p7e7e24b0b0)" style="fill: #e4eff9; stroke: #415a6b; stroke-width: 0.9; stroke-linejoin: miter"/>
   </g>
   <g id="patch_19">
    <path d="M 186.12 277.2 
L 332.28 277.2 
Q 337.32 277.2 337.32 272.16 
L 337.32 217.44 
Q 337.32 212.4 332.28 212.4 
L 186.12 212.4 
Q 181.08 212.4 181.08 217.44 
L 181.08 272.16 
Q 181.08 277.2 186.12 277.2 
z
" clip-path="url(#p7e7e24b0b0)" style="fill: #e4f2ed; stroke: #415a6b; stroke-width: 0.9; stroke-linejoin: miter"/>
   </g>
   <g id="patch_20">
    <path d="M 355.32 277.2 
L 501.48 277.2 
Q 506.52 277.2 506.52 272.16 
L 506.52 217.44 
Q 506.52 212.4 501.48 212.4 
L 355.32 212.4 
Q 350.28 212.4 350.28 217.44 
L 350.28 272.16 
Q 350.28 277.2 355.32 277.2 
z
" clip-path="url(#p7e7e24b0b0)" style="fill: #e4f2ed; stroke: #415a6b; stroke-width: 0.9; stroke-linejoin: miter"/>
   </g>
   <g id="patch_21">
    <path d="M 16.92 390.6 
L 163.08 390.6 
Q 168.12 390.6 168.12 385.56 
L 168.12 320.04 
Q 168.12 315 163.08 315 
L 16.92 315 
Q 11.88 315 11.88 320.04 
L 11.88 385.56 
Q 11.88 390.6 16.92 390.6 
z
" clip-path="url(#p7e7e24b0b0)" style="fill: #e4eff9; stroke: #415a6b; stroke-width: 0.9; stroke-linejoin: miter"/>
   </g>
   <g id="patch_22">
    <path d="M 186.12 390.6 
L 332.28 390.6 
Q 337.32 390.6 337.32 385.56 
L 337.32 320.04 
Q 337.32 315 332.28 315 
L 186.12 315 
Q 181.08 315 181.08 320.04 
L 181.08 385.56 
Q 181.08 390.6 186.12 390.6 
z
" clip-path="url(#p7e7e24b0b0)" style="fill: #e4f2ed; stroke: #415a6b; stroke-width: 0.9; stroke-linejoin: miter"/>
   </g>
   <g id="patch_23">
    <path d="M 355.32 390.6 
L 501.48 390.6 
Q 506.52 390.6 506.52 385.56 
L 506.52 320.04 
Q 506.52 315 501.48 315 
L 355.32 315 
Q 350.28 315 350.28 320.04 
L 350.28 385.56 
Q 350.28 390.6 355.32 390.6 
z
" clip-path="url(#p7e7e24b0b0)" style="fill: #e4f2ed; stroke: #415a6b; stroke-width: 0.9; stroke-linejoin: miter"/>
   </g>
   <g id="patch_24">
    <path d="M 21.24 477.72 
L 497.16 477.72 
Q 502.2 477.72 502.2 472.68 
L 502.2 434.52 
Q 502.2 429.48 497.16 429.48 
L 21.24 429.48 
Q 16.2 429.48 16.2 434.52 
L 16.2 472.68 
Q 16.2 477.72 21.24 477.72 
z
" clip-path="url(#p7e7e24b0b0)" style="fill: #fff0d8; stroke: #415a6b; stroke-width: 0.9; stroke-linejoin: miter"/>
   </g>
   <g id="text_1">
    <text style="font-size: 10px; font-family: 'DejaVu Sans'; fill: #152d3a" transform="translate(135.528125 32.400625)">Panoramic image → aspect-ratio-preserving input</text>
    <text style="font-size: 10px; font-family: 'DejaVu Sans'; fill: #152d3a" transform="translate(129.690625 45.118125)">448 × 448 pixels, checkpoint-specific normalization</text>
   </g>
   <g id="text_2">
    <text style="font-size: 9.5px; font-family: 'DejaVu Sans'; fill: #152d3a" transform="translate(54.446992 127.339781)">EfficientNet-B4</text>
    <text style="font-size: 9.5px; font-family: 'DejaVu Sans'; fill: #152d3a" transform="translate(58.839258 139.421406)">Whole image</text>
    <text style="font-size: 9.5px; font-family: 'DejaVu Sans'; fill: #152d3a" transform="translate(36.391055 151.503031)">ImageNet initialization</text>
   </g>
   <g id="text_3">
    <text style="font-size: 9.5px; font-family: 'DejaVu Sans'; fill: #152d3a" transform="translate(220.201758 127.339781)">DINOv2 ViT-S/14</text>
    <text style="font-size: 9.5px; font-family: 'DejaVu Sans'; fill: #152d3a" transform="translate(228.039258 139.421406)">Whole image</text>
    <text style="font-size: 9.5px; font-family: 'DejaVu Sans'; fill: #152d3a" transform="translate(222.782344 151.503031)">Frozen encoder</text>
   </g>
   <g id="text_4">
    <text style="font-size: 9.5px; font-family: 'DejaVu Sans'; fill: #152d3a" transform="translate(389.401758 127.339781)">DINOv2 ViT-S/14</text>
    <text style="font-size: 9.5px; font-family: 'DejaVu Sans'; fill: #152d3a" transform="translate(384.518164 139.421406)">Whole + 3 regions</text>
    <text style="font-size: 9.5px; font-family: 'DejaVu Sans'; fill: #152d3a" transform="translate(391.982344 151.503031)">Frozen encoder</text>
   </g>
   <g id="text_5">
    <text style="font-size: 9.5px; font-family: 'DejaVu Sans'; fill: #152d3a" transform="translate(57.251719 241.380594)">Global pooled</text>
    <text style="font-size: 9.5px; font-family: 'DejaVu Sans'; fill: #152d3a" transform="translate(36.964023 253.462219)">convolutional features</text>
   </g>
   <g id="text_6">
    <text style="font-size: 9.5px; font-family: 'DejaVu Sans'; fill: #152d3a" transform="translate(211.258398 241.380594)">Whole-image vector</text>
    <text style="font-size: 9.5px; font-family: 'DejaVu Sans'; fill: #152d3a" transform="translate(229.002617 253.462219)">384 features</text>
   </g>
   <g id="text_7">
    <text style="font-size: 9.5px; font-family: 'DejaVu Sans'; fill: #152d3a" transform="translate(376.497344 235.339781)">Whole vector + mean</text>
    <text style="font-size: 9.5px; font-family: 'DejaVu Sans'; fill: #152d3a" transform="translate(384.009766 247.421406)">of regional vectors</text>
    <text style="font-size: 9.5px; font-family: 'DejaVu Sans'; fill: #152d3a" transform="translate(398.202617 259.503031)">768 features</text>
   </g>
   <g id="text_8">
    <text style="font-size: 9.5px; font-family: 'DejaVu Sans'; fill: #152d3a" transform="translate(52.264219 343.339781)">Train encoder +</text>
    <text style="font-size: 9.5px; font-family: 'DejaVu Sans'; fill: #152d3a" transform="translate(56.64832 355.421406)">256-unit head</text>
    <text style="font-size: 9.5px; font-family: 'DejaVu Sans'; fill: #152d3a" transform="translate(33.8075 367.503031)">Weighted cross entropy</text>
   </g>
   <g id="text_9">
    <text style="font-size: 9.5px; font-family: 'DejaVu Sans'; fill: #152d3a" transform="translate(209.739883 343.339781)">Fit standardization +</text>
    <text style="font-size: 9.5px; font-family: 'DejaVu Sans'; fill: #152d3a" transform="translate(218.908125 355.421406)">weighted logistic</text>
    <text style="font-size: 9.5px; font-family: 'DejaVu Sans'; fill: #152d3a" transform="translate(234.462148 367.503031)">regression</text>
   </g>
   <g id="text_10">
    <text style="font-size: 9.5px; font-family: 'DejaVu Sans'; fill: #152d3a" transform="translate(378.939883 343.339781)">Fit standardization +</text>
    <text style="font-size: 9.5px; font-family: 'DejaVu Sans'; fill: #152d3a" transform="translate(388.108125 355.421406)">weighted logistic</text>
    <text style="font-size: 9.5px; font-family: 'DejaVu Sans'; fill: #152d3a" transform="translate(403.662148 367.503031)">regression</text>
   </g>
   <g id="text_11">
    <text style="font-size: 9.2px; font-family: 'DejaVu Sans'; fill: #152d3a" transform="translate(127.403531 450.288575)">Four stage probabilities → most probable reference stage</text>
    <text style="font-size: 9.2px; font-family: 'DejaVu Sans'; fill: #152d3a" transform="translate(97.45825 461.988675)">Evaluation uses held-out predictions, not predictions on fitting images</text>
   </g>
  </g>
 </g>
 <defs>
  <clipPath id="p7e7e24b0b0">
   <rect x="0" y="0" width="518.4" height="496.8"/>
  </clipPath>
 </defs>
</svg>
